<svg id="Layer_1" data-name="Layer 1" xmlns="http://www.w3.org/2000/svg" viewBox="0 0 94 94"><path d="M6.15,21.91a.74.74,0,0,1-.48-.18A5,5,0,0,1,4.1,19.54a3.33,3.33,0,0,1,.23-2.77C5.43,14.7,8.43,13.43,10,13a13.68,13.68,0,0,0,3.25-1.35.75.75,0,1,1,.78,1.28,14.74,14.74,0,0,1-3.64,1.52c-1.48.39-4,1.52-4.77,3a1.87,1.87,0,0,0-.13,1.58,3.49,3.49,0,0,0,1.11,1.52.75.75,0,0,1,.09,1.06A.76.76,0,0,1,6.15,21.91Z"/><path d="M6.2,27.88a.72.72,0,0,1-.4-.12,4.23,4.23,0,0,1-2.29-3.41c-.18-4.84,7.77-5.7,8.11-5.74a.75.75,0,0,1,.82.67.76.76,0,0,1-.67.83c-.07,0-6.89.8-6.77,4.18A2.89,2.89,0,0,0,6.6,26.5a.74.74,0,0,1,.23,1A.73.73,0,0,1,6.2,27.88Z"/><path d="M92,26.59l-.16,0a29.11,29.11,0,0,0-3.57-.23.75.75,0,0,1,0-1.5h0a24.07,24.07,0,0,1,3.84.27.74.74,0,0,1,.57.89A.76.76,0,0,1,92,26.59Z"/><path d="M24.85,36.54h-.42a.76.76,0,0,1-.67-.9,2.32,2.32,0,0,0-.38-2.09c-.58-.68-2.08-1.45-5.86-1.28A21.34,21.34,0,0,0,14,33c-3.16.81-6.74,1.73-8.81.38A3.33,3.33,0,0,1,3.73,31a4.11,4.11,0,0,1,.8-3.31c2.13-2.79,7.57-3.33,7.8-3.35a.75.75,0,0,1,.82.67.76.76,0,0,1-.68.82c-.05,0-5,.5-6.75,2.77a2.59,2.59,0,0,0-.51,2.14A1.87,1.87,0,0,0,6,32.1c1.53,1,4.91.13,7.63-.57a20.54,20.54,0,0,1,3.8-.76c3.58-.17,5.89.42,7.07,1.79A3.52,3.52,0,0,1,25.34,35a6.28,6.28,0,0,0,5.09-2.89c2.16-3.64,6.28-7.63,7.71-8.21.35-.14.81-.32,20.17.12a.76.76,0,0,1,.73.77.74.74,0,0,1-.77.73c-12.31-.28-18.92-.35-19.64-.2-.9.36-4.76,3.93-6.91,7.56A7.91,7.91,0,0,1,24.85,36.54Z"/><path d="M81.22,6.89a.75.75,0,0,1-.75-.74.76.76,0,0,1,.74-.76l10.44-.13h0a.75.75,0,0,1,.75.74.74.74,0,0,1-.74.76l-10.44.13Z"/><path d="M6,16.68a.75.75,0,0,1-.7-.49,5.08,5.08,0,0,1,.13-4.14C7,8.84,12,7.35,14.64,6.54l.95-.29a22.51,22.51,0,0,1,13.17-.6,22.56,22.56,0,0,0,6,.7L61,5.81a.73.73,0,0,1,.77.73.75.75,0,0,1-.74.77l-26.25.54a24.3,24.3,0,0,1-6.38-.75,21,21,0,0,0-12.31.57l-1,.31c-2.45.74-7,2.11-8.33,4.74a3.55,3.55,0,0,0-.07,2.95.76.76,0,0,1-.71,1Z"/><path d="M80.11,82.4a.74.74,0,0,1-.63-.36.75.75,0,0,1,.24-1,14.7,14.7,0,0,1,3.65-1.52c1.47-.4,4-1.53,4.76-3a1.91,1.91,0,0,0,.14-1.58,3.52,3.52,0,0,0-1.12-1.52.75.75,0,0,1,1-1.15,4.92,4.92,0,0,1,1.57,2.19,3.41,3.41,0,0,1-.23,2.77c-1.11,2.07-4.11,3.34-5.71,3.77a13.27,13.27,0,0,0-3.24,1.35A.83.83,0,0,1,80.11,82.4Z"/><path d="M82.09,75.33a.75.75,0,0,1-.08-1.5c.07,0,6.89-.8,6.77-4.18a2.89,2.89,0,0,0-1.6-2.21A.75.75,0,1,1,88,66.18a4.25,4.25,0,0,1,2.29,3.41c.17,4.84-7.78,5.7-8.12,5.73Z"/><path d="M5.38,69.1h0C3.51,69,2.86,69,2.65,69a.92.92,0,0,1-.37,0,.79.79,0,0,1-.6-.85c.11-.75.11-.75,3.74-.55a.74.74,0,0,1,.71.79A.75.75,0,0,1,5.38,69.1Z"/><path d="M52.84,70.17c-2.61,0-7.63-.11-17.46-.33a.76.76,0,0,1-.74-.77.77.77,0,0,1,.77-.73c12.1.28,19,.43,19.72.26.94-.42,4.85-4,6.93-7.57,2.36-4,7.07-3.63,7.26-3.61a.76.76,0,0,1,.54.3.74.74,0,0,1,.14.59,2.32,2.32,0,0,0,.38,2.09c.58.68,2.08,1.45,5.89,1.27a19.76,19.76,0,0,0,3.5-.72c3.15-.8,6.73-1.72,8.81-.37a3.35,3.35,0,0,1,1.47,2.36,4.11,4.11,0,0,1-.79,3.31c-2.13,2.79-7.58,3.33-7.81,3.35a.75.75,0,0,1-.14-1.49s5-.51,6.76-2.77a2.64,2.64,0,0,0,.5-2.15,1.87,1.87,0,0,0-.81-1.36c-1.52-1-4.9-.12-7.62.58a21.58,21.58,0,0,1-3.8.76c-3.59.17-5.92-.42-7.1-1.79a3.47,3.47,0,0,1-.82-2.46,6.21,6.21,0,0,0-5.07,2.88c-2.09,3.52-6.21,7.54-7.69,8.2A9.85,9.85,0,0,1,52.84,70.17Z"/><path d="M12.66,88.55H2a.75.75,0,0,1,0-1.5H12.66a.75.75,0,0,1,0,1.5Z"/><path d="M70.24,89.11a18.61,18.61,0,0,1-7.34-1.47,1.43,1.43,0,0,0-.6-.12L32.7,88a.75.75,0,0,1,0-1.5L62.27,86a3.09,3.09,0,0,1,1.22.24c4.22,1.8,9,1.8,14.22,0l1-.31c2.46-.74,7-2.11,8.34-4.74a3.59,3.59,0,0,0,.07-3,.75.75,0,1,1,1.4-.52,5,5,0,0,1-.13,4.14c-1.61,3.21-6.58,4.7-9.25,5.51-.37.11-.69.2-1,.29A24.43,24.43,0,0,1,70.24,89.11Z"/><path d="M81.77,14.69a.77.77,0,0,1-.64-.36,14.74,14.74,0,0,1-1.52-3.64c-.4-1.48-1.53-4-3-4.77A1.91,1.91,0,0,0,75,5.78,3.52,3.52,0,0,0,73.48,6.9.75.75,0,0,1,72.42,7a.74.74,0,0,1-.09-1,4.9,4.9,0,0,1,2.19-1.57,3.33,3.33,0,0,1,2.77.23c2.07,1.1,3.34,4.1,3.77,5.7a13.27,13.27,0,0,0,1.35,3.24.76.76,0,0,1-.24,1A.83.83,0,0,1,81.77,14.69Z"/><path d="M74.7,12.71A.75.75,0,0,1,74,12c0-.07-.83-6.91-4.18-6.77a2.89,2.89,0,0,0-2.21,1.6.75.75,0,1,1-1.26-.8,4.24,4.24,0,0,1,3.41-2.3c4.8-.16,5.7,7.78,5.74,8.12a.75.75,0,0,1-.67.82Z"/><path d="M68.24,91.9h-.12A.74.74,0,0,1,67.5,91s.13-.88.23-2.8a.78.78,0,0,1,.79-.71.75.75,0,0,1,.71.79,28.63,28.63,0,0,1-.25,3A.75.75,0,0,1,68.24,91.9Z"/><path d="M69.26,58.92h0a.76.76,0,0,1-.73-.77c.28-12.07.35-18.54.2-19.25-.36-.9-3.93-4.76-7.56-6.91-4-2.36-3.63-7-3.61-7.25a.74.74,0,0,1,.3-.53.76.76,0,0,1,.6-.14,2.34,2.34,0,0,0,2.08-.38c.67-.58,1.45-2.08,1.28-5.91a21.46,21.46,0,0,0-.72-3.49c-.81-3.16-1.73-6.74-.38-8.81A3.33,3.33,0,0,1,63.06,4a4.07,4.07,0,0,1,3.31.8c2.79,2.13,3.33,7.57,3.35,7.8a.74.74,0,0,1-.68.81.75.75,0,0,1-.81-.67c0-.05-.51-5-2.77-6.75a2.55,2.55,0,0,0-2.14-.51A1.87,1.87,0,0,0,62,6.29c-1,1.53-.13,4.91.57,7.62a20.62,20.62,0,0,1,.76,3.81c.17,3.6-.42,5.93-1.8,7.11a3.52,3.52,0,0,1-2.45.82,6.19,6.19,0,0,0,2.88,5.05c3.64,2.16,7.63,6.27,8.21,7.71.13.34.32.79-.12,19.78A.75.75,0,0,1,69.26,58.92Z"/><path d="M87.81,91.33a.76.76,0,0,1-.75-.75V81.35a.75.75,0,0,1,1.5,0v9.23A.76.76,0,0,1,87.81,91.33Z"/><path d="M87.68,61.7a.74.74,0,0,1-.75-.73l-.69-26.65a16,16,0,0,1,.66-5.2c.75-2.51,1.28-6.77-.52-12.81-.08-.24-.18-.58-.3-1-.74-2.45-2.11-7-4.74-8.33a3.55,3.55,0,0,0-3-.07.75.75,0,0,1-.52-1.41A5.08,5.08,0,0,1,82,5.66c3.21,1.61,4.7,6.58,5.51,9.25.11.37.21.7.29.95,1.91,6.42,1.34,11,.52,13.7a14.65,14.65,0,0,0-.59,4.71l.69,26.66a.75.75,0,0,1-.73.77Z"/><path d="M18,89.71a3.34,3.34,0,0,1-1.63-.43c-2.08-1.1-3.35-4.1-3.77-5.7a13.94,13.94,0,0,0-1.36-3.25.76.76,0,0,1,.25-1,.75.75,0,0,1,1,.24,15.13,15.13,0,0,1,1.52,3.65c.4,1.48,1.53,4,3,4.77a1.87,1.87,0,0,0,1.58.13A3.49,3.49,0,0,0,20.2,87a.76.76,0,0,1,1.06-.1.75.75,0,0,1,.09,1.06,5,5,0,0,1-2.18,1.57A3.6,3.6,0,0,1,18,89.71Z"/><path d="M23.81,90.11c-4.7,0-5.54-7.79-5.57-8.12a.75.75,0,1,1,1.49-.15c0,.07.83,6.87,4.19,6.76A2.88,2.88,0,0,0,26.12,87a.75.75,0,0,1,1.27.8A4.28,4.28,0,0,1,24,90.1Z"/><path d="M25.2,6.54h0a.73.73,0,0,1-.72-.77c.1-3.53.1-3.6.83-3.67a.76.76,0,0,1,.81.59.78.78,0,0,1,0,.43c0,.2-.07.82-.12,2.69A.76.76,0,0,1,25.2,6.54Z"/><path d="M29.82,90a4.05,4.05,0,0,1-2.51-.87C24.52,87,24,81.51,24,81.28a.75.75,0,0,1,1.5-.14s.5,5,2.76,6.75a2.65,2.65,0,0,0,2.15.51,1.94,1.94,0,0,0,1.36-.81c1-1.53.12-4.91-.58-7.63a21.41,21.41,0,0,1-.76-3.8c-.17-3.6.42-5.92,1.8-7.1a3.54,3.54,0,0,1,2.45-.82,6.22,6.22,0,0,0-2.87-5.06c-3.65-2.16-7.64-6.28-8.22-7.71-.22-.57-.17-3.86.15-17.65l.05-2.06a.75.75,0,0,1,.76-.73.76.76,0,0,1,.74.77l-.05,2.05C25,46.64,24.82,54.22,25,55c.36.9,3.93,4.76,7.56,6.91,4,2.35,3.63,7.06,3.61,7.26a.75.75,0,0,1-.3.54.77.77,0,0,1-.59.13,2.35,2.35,0,0,0-2.09.38c-.67.58-1.45,2.08-1.27,5.89a20.33,20.33,0,0,0,.72,3.5c.8,3.16,1.72,6.74.38,8.81a3.37,3.37,0,0,1-2.37,1.48A4.4,4.4,0,0,1,29.82,90Z"/><path d="M5.93,13.44a.74.74,0,0,1-.75-.73L5,3.39a.75.75,0,0,1,.73-.76h0a.75.75,0,0,1,.75.73l.19,9.32a.75.75,0,0,1-.74.76Z"/><path d="M13.82,88.73a4.8,4.8,0,0,1-2.15-.52C8.46,86.61,7,81.64,6.17,79c-.12-.37-.21-.7-.3-1C4.23,72.49,4.15,67.6,5.65,63.46A5.73,5.73,0,0,0,6,61.35L5.53,33.06a.76.76,0,0,1,.74-.76A.73.73,0,0,1,7,33l.49,28.29A7.35,7.35,0,0,1,7.06,64c-1.38,3.83-1.3,8.41.24,13.6.08.24.19.58.3,1,.74,2.45,2.11,7,4.74,8.33a3.55,3.55,0,0,0,2.95.07.75.75,0,0,1,1,.45.74.74,0,0,1-.44,1A5.79,5.79,0,0,1,13.82,88.73Z"/></svg>