<?xml version="1.0"?><svg xmlns="http://www.w3.org/2000/svg" xmlns:xlink="http://www.w3.org/1999/xlink" version="1.1" id="Layer_1" viewBox="0 0 52 52" style="enable-background:new 0 0 52 52;" xml:space="preserve"><style type="text/css">
	.st0{fill:#010101;}
</style><g><path class="st0" d="M46.210083,8.6362228h-9.0599365c0.539917,1.3600464,0.829834,2.8500366,0.8099365,4.3900146h6.9000244   v22.8900146H7.1401367V13.0262375h7.5699463c-0.0100098-0.0599976-0.0100098-0.1099854-0.0100098-0.1699829   c0-1.4899902,0.2799072-2.9100342,0.7999268-4.2200317H5.7900391C4.1101074,8.6362228,2.75,9.9962692,2.75,11.6662521v28.0800171   c0,1.6699829,1.3601074,3.0299683,3.0400391,3.0299683H25.489502v4.9937744h-4.5751953c-0.4140625,0-0.75,0.3359375-0.75,0.75   s0.3359375,0.75,0.75,0.75h10.6503906c0.4140625,0,0.75-0.3359375,0.75-0.75s-0.3359375-0.75-0.75-0.75H26.989502v-4.9937744   H46.210083c1.6800537,0,3.039917-1.3599854,3.039917-3.0299683V11.6662521   C49.25,9.9962692,47.8901367,8.6362228,46.210083,8.6362228z M26.9689941,40.0750046   c-0.4025879,0.4028931-1.0539551,0.4038086-1.4580078,0c-0.4089355-0.4093628-0.3979492-1.0600586,0-1.4580688   c0.4157715-0.4160767,1.0732422-0.3848877,1.4580078,0C27.3623047,39.0101242,27.3829346,39.6614914,26.9689941,40.0750046z"/><path class="st0" d="M26.3500977,33.0762253c2.2099609,0,4.0999756-1.3800049,4.8499756-3.3299561H21.5   C22.25,31.6962204,24.1401367,33.0762253,26.3500977,33.0762253z"/><path class="st0" d="M31.5500488,27.8762741v-1.7300415c0-0.3800049-0.3100586-0.6900024-0.6999512-0.6900024h-9.0100098   c-0.3800049,0-0.6899414,0.3099976-0.6899414,0.6900024v1.7300415c0,0.1299438,0,0.25,0.0198975,0.3699951h10.3599854   C31.5500488,28.1262741,31.5500488,28.006218,31.5500488,27.8762741z"/><path class="st0" d="M26.7727051,11.528801c0.3271484-0.2539063,0.7978516-0.1953125,1.0527344,0.1308594   c0.2543945,0.3271484,0.1958008,0.7978516-0.1308594,1.0527344c-1.1418457,0.8886108-2.1018066,1.9227295-2.8303223,3.0237427   c0.8150635,0.2492065,2.1405029,0.3516235,3.4030762-0.8919067c0.0151367-0.0146484,1.0170898-1.0166016,1.612793-3.2353516   c0.1962891-0.7314453,0.4174805-1.3320313,0.6601563-1.7949219c-0.480957-0.0908203-1.0576172-0.1757813-1.6416016-0.2089844   c-1.2954102-0.0722656-2.5771484,0.3291016-3.5249023,1.1044922c-1.3509521,1.1066284-1.4936523,2.5739136-1.3659668,3.635437   C24.7663574,13.3206711,25.6994629,12.3644943,26.7727051,11.528801z"/><path class="st0" d="M20.1101074,20.8562546C21.1201172,21.6262741,21.8100586,22.7362595,22,23.9562302h8.6401367   C30.8200684,22.7362595,31.5,21.6562424,32.5,20.8862228c2.3601074-1.8099976,3.9001465-4.6499634,3.960083-7.8499756   c0.0899658-5.4400024-4.3399658-10.1099854-9.7700195-10.2999878c-5.7600098-0.2000122-10.4899902,4.4099731-10.4899902,10.1199951   C16.2000732,16.1062546,17.7299805,19.006218,20.1101074,20.8562546z M22.3400879,17.4562302   c0.1499023-0.4500122,0.3499756-0.8899536,0.5699463-1.3200073c-0.5899658-1.5-0.9499512-4.5699463,1.5100098-6.5899658   c1.2600098-1.0200195,2.8699951-1.5300293,4.5599365-1.4400024c0.9500732,0.0499878,1.8701172,0.2299805,2.4700928,0.3699951   c0.3699951,0.0800171,0.6600342,0.3400269,0.7799072,0.6799927c0.130127,0.3499756,0.0700684,0.7399902-0.1699219,1.039978   c-0.1400146,0.1800537-0.4299316,0.6700439-0.7299805,1.8000488c-0.7199707,2.6599731-1.9699707,3.8699951-2.0200195,3.9299927   c-1.1199951,1.0999756-2.3499756,1.4699707-3.4299316,1.4699707c-0.6600342,0-1.2600098-0.1400146-1.7600098-0.3299561   c-0.1401367,0.289978-0.2600098,0.5799561-0.3601074,0.8799438c-0.1098633,0.3099976-0.3999023,0.5-0.7099609,0.5   c-0.0799561,0-0.1699219-0.0099487-0.25-0.039978C22.4100342,18.2762375,22.2000732,17.8462448,22.3400879,17.4562302z"/></g></svg>