<?xml version="1.0" ?><svg data-name="Layer 1" id="Layer_1" viewBox="0 0 512 512" xmlns="http://www.w3.org/2000/svg" xmlns:xlink="http://www.w3.org/1999/xlink"><defs><radialGradient cx="193.09" cy="493.29" fx="159.10076116445987" gradientUnits="userSpaceOnUse" id="radial-gradient" r="466"><stop offset="0" stop-color="#fed77b"/><stop offset="0.11" stop-color="#fed277"/><stop offset="0.2" stop-color="#fdc067"/><stop offset="0.36" stop-color="#f4794f"/><stop offset="0.46" stop-color="#ee483f"/><stop offset="0.78" stop-color="#af2c94"/><stop offset="1" stop-color="#5658d1"/></radialGradient></defs><title/><rect fill="url(#radial-gradient)" height="412.22" rx="55.43" width="412.22" x="49.89" y="49.89"/><path d="M256,315.88a61.7,61.7,0,1,1,61.7-61.7A61.75,61.75,0,0,1,256,315.88Zm0-106.61a44.92,44.92,0,1,0,44.91,44.91A45,45,0,0,0,256,209.27Z" fill="#fefefe"/><path d="M314.41,379.83H198.53a67.13,67.13,0,0,1-67.05-67.05V196.9a67.13,67.13,0,0,1,67.05-67.05H314.41a67.13,67.13,0,0,1,67,67.05V312.78A67.13,67.13,0,0,1,314.41,379.83ZM202.12,147.29a53.28,53.28,0,0,0-53.21,53.21V309.18a53.28,53.28,0,0,0,53.21,53.21H310.81A53.27,53.27,0,0,0,364,309.18V200.5a53.27,53.27,0,0,0-53.21-53.21Z" fill="#fefefe"/><circle cx="325.02" cy="186.34" fill="#fefefe" r="14.74"/></svg>