<svg id="expnaded" xmlns="http://www.w3.org/2000/svg" viewBox="0 0 96 96"><path d="M48,94C28.37,94,12.4,77.2,12.4,56.56a1,1,0,0,1,1-1H82.6a1,1,0,0,1,1,1C83.6,77.2,67.63,94,48,94ZM14.41,57.56C14.92,76.64,29.79,92,48,92S81.08,76.64,81.59,57.56Z"/><path d="M66.9,57.56c-.46,0-.64-.2-1.19-.77-.92-1-3.75-4-5.52-4.32-2.73-.56-4.8-1.44-6-3.95-.67-1.42-5.54-1.11-8.46-.92l-.26,0a2.11,2.11,0,0,0-2,1.24c-.69,1-1.63,2.44-5,2.44-4.71,0-9.22,5.81-9.27,5.87A1,1,0,0,1,27.57,56c.21-.27,5.15-6.65,10.86-6.65,2.35,0,2.8-.68,3.38-1.55a4,4,0,0,1,3.55-2.13l.26,0c4.29-.27,9.15-.59,10.4,2.07.74,1.56,1.93,2.3,4.57,2.84,2.12.43,4.62,2.85,6.58,4.91.14.15.25.27.32.33a1,1,0,0,1,.41.81A1,1,0,0,1,66.9,57.56Z"/><path d="M48,47.43a1,1,0,0,1-1-1V15.7a1,1,0,0,1,2,0V46.43A1,1,0,0,1,48,47.43Z"/><path d="M55.66,45.41a8.94,8.94,0,0,1-5.29-1.84l-1.66,1.17a1,1,0,0,1-1.15-1.64l1.87-1.31a8.12,8.12,0,0,1,3-5.53c3.07-2.44,8-2.84,14.72-1.16a1,1,0,0,1,.62,1.47c-.19.32-4.57,7.65-10.64,8.71A8.08,8.08,0,0,1,55.66,45.41Zm-4.23-3.55a6.64,6.64,0,0,0,5.34,1.45c3.84-.67,7.08-4.6,8.49-6.59C60,35.6,56,36,53.66,37.83A6.1,6.1,0,0,0,51.43,41.86Z"/><path d="M53.13,30.51a6.12,6.12,0,0,1-3.51-1.15l-.91.64a1,1,0,0,1-1.15-1.63l1.12-.79a5.75,5.75,0,0,1,2.09-3.75c2.14-1.7,5.53-2,10.08-.84a1,1,0,0,1,.68.58,1,1,0,0,1-.06.9c-.12.21-3.12,5.21-7.3,6A6.09,6.09,0,0,1,53.13,30.51Zm-2.44-2.84a4.11,4.11,0,0,0,3.13.78C56,28.07,57.92,26,59,24.62c-3.16-.6-5.54-.33-6.93.77A3.73,3.73,0,0,0,50.69,27.67Z"/><path d="M42.68,40.55a6.53,6.53,0,0,1-1.07-.09c-4.32-.76-7.41-5.93-7.54-6.15a1,1,0,0,1-.06-.9,1,1,0,0,1,.68-.58c4.71-1.18,8.22-.89,10.42.86a5.92,5.92,0,0,1,2.15,3.88l1.18.83A1,1,0,1,1,47.29,40l-1-.68A6.33,6.33,0,0,1,42.68,40.55Zm-6.09-6.09c1.06,1.4,3.06,3.63,5.37,4a4.24,4.24,0,0,0,3.3-.83,3.84,3.84,0,0,0-1.43-2.42C42.37,34.09,39.88,33.83,36.59,34.46Z"/><path d="M42.68,25.16a5.61,5.61,0,0,1-1.07-.1c-4.32-.76-7.41-5.93-7.54-6.15a1,1,0,0,1,.62-1.48c4.71-1.18,8.22-.88,10.42.87a5.9,5.9,0,0,1,2.15,3.87l1.18.83a1,1,0,0,1-1.15,1.63l-1-.67A6.41,6.41,0,0,1,42.68,25.16Zm-6.09-6.1c1.06,1.4,3.06,3.63,5.37,4a4.23,4.23,0,0,0,3.3-.83,3.86,3.86,0,0,0-1.43-2.42C42.37,18.7,39.88,18.43,36.59,19.06Z"/><path d="M48,17.69a1,1,0,0,1-1-1V15.51a6.2,6.2,0,0,1-3.62-3.21c-1.87-4,.58-9.48.68-9.71a1,1,0,0,1,.7-.57,1.06,1.06,0,0,1,.87.22c3.68,3.17,5.46,6.21,5.3,9a5.87,5.87,0,0,1-1.93,4v1.44a1,1,0,0,1-1,1ZM45.39,4.74c-.53,1.67-1.2,4.59-.19,6.71a4.22,4.22,0,0,0,2.58,2.21,3.83,3.83,0,0,0,1.15-2.55C49,9.25,47.81,7.06,45.39,4.74Z"/><path d="M35.76,91.65a1.26,1.26,0,0,1-.33-.05,1,1,0,0,1-.61-1.28,16.57,16.57,0,0,0,.59-3.65c.14-2-4-7.94-5.95-9.79s-5.22-6.65-6-10.55a.62.62,0,0,0,0-.14c-.91,0-4,2.41-6.55,5.26a1,1,0,0,1-1.48-1.35c1.8-2,6.23-6.51,8.63-5.83a2,2,0,0,1,1.4,1.66c.67,3.33,3.6,7.78,5.42,9.5s6.79,8.23,6.56,11.38A18.06,18.06,0,0,1,36.71,91,1,1,0,0,1,35.76,91.65ZM23.4,66.14Z"/><path d="M57.52,92.6H57.4a1,1,0,0,1-.88-1.11c0-.3.93-7.43,5.47-8.3,1-.19,1.09-1.55.8-4.33-.22-2.16-.47-4.61,1.57-5a19.4,19.4,0,0,1,3-.33,7,7,0,0,0,3.29-.65c.47-.28.62-.66.89-1.42a6.22,6.22,0,0,1,3-3.74,21.74,21.74,0,0,1,6.67-2.51,1,1,0,0,1,1.16.81,1,1,0,0,1-.82,1.16,19.86,19.86,0,0,0-6,2.26,4.29,4.29,0,0,0-2.11,2.69,4.12,4.12,0,0,1-1.74,2.46,8.53,8.53,0,0,1-4.22.94,16.35,16.35,0,0,0-2.72.29c-.25.29-.09,1.92,0,2.89.26,2.5.61,5.92-2.42,6.5-2.57.49-3.65,4.9-3.85,6.56A1,1,0,0,1,57.52,92.6Z"/><path d="M57.58,68.36h0a5.6,5.6,0,0,1-5.1-2.66c-.82-1.42-1.49-1.31-4.19-.6a28.43,28.43,0,0,1-6.85,1.09h-.23c-7.61,0-11.1-8.89-11.24-9.28a1,1,0,0,1,1.87-.71c0,.08,3.14,8,9.38,8h.17a25.91,25.91,0,0,0,6.39-1c2.59-.67,4.81-1.25,6.43,1.53a3.78,3.78,0,0,0,3.38,1.67h0c1.87,0,3.62-.86,4.1-1.67,1-1.63,2.76-1.55,4.07-1.5s1.9,0,2.2-.46c.9-1.46.67-4.85.51-6a1,1,0,0,1,.86-1.12,1,1,0,0,1,1.12.85c.07.51.64,5-.79,7.35-.94,1.54-2.63,1.47-4,1.41s-2,0-2.27.52C62.5,67.25,60.05,68.36,57.58,68.36Z"/></svg>