<svg id="Layer_1" data-name="Layer 1" xmlns="http://www.w3.org/2000/svg" viewBox="0 0 94 94"><path d="M21.37,76.28A20.12,20.12,0,1,1,41.48,56.17,20.13,20.13,0,0,1,21.37,76.28Zm0-38.73A18.62,18.62,0,1,0,40,56.17,18.64,18.64,0,0,0,21.37,37.55Z"/><path d="M21.34,71.1A14.94,14.94,0,1,1,36.28,56.17,15,15,0,0,1,21.34,71.1Zm0-28.37A13.44,13.44,0,1,0,34.78,56.17,13.46,13.46,0,0,0,21.34,42.73Z"/><path d="M16.08,26.69l-.19,0a.76.76,0,0,1-.54-.92,10.63,10.63,0,0,1,20.17-1.37.75.75,0,1,1-1.39.56A9.13,9.13,0,0,0,16.8,26.12.75.75,0,0,1,16.08,26.69Z"/><path d="M47,53.15a4.86,4.86,0,1,1,4.86-4.86A4.87,4.87,0,0,1,47,53.15Zm0-8.22a3.36,3.36,0,1,0,3.36,3.36A3.37,3.37,0,0,0,47,44.93Z"/><path d="M90,48.34a.75.75,0,0,1-.69-.46c0-.09-4-9.36-7.56-16.07a16.3,16.3,0,0,0-10.81-8.48,15.42,15.42,0,0,0-11.35,1.94.83.83,0,0,1-.32.13l-5.7.84c-.33,2.38-2,6-6.58,5.91-4.37.2-6.13-3.49-6.54-5.9l-5.72-.85a.83.83,0,0,1-.32-.13,15.42,15.42,0,0,0-11.35-1.94,16.3,16.3,0,0,0-10.81,8.48c-3.55,6.71-7.52,16-7.56,16.07a.75.75,0,1,1-1.38-.59c0-.09,4-9.42,7.62-16.18a17.8,17.8,0,0,1,11.81-9.25,16.82,16.82,0,0,1,12.38,2.08l6.11.91a.75.75,0,0,1,.64.67c0,.22.56,5.3,5.1,5.13h.12c4.73,0,5-4.89,5-5.1a.76.76,0,0,1,.64-.7l6.11-.91a16.8,16.8,0,0,1,12.38-2.08,17.8,17.8,0,0,1,11.81,9.25c3.58,6.76,7.58,16.09,7.62,16.18a.76.76,0,0,1-.39,1A.8.8,0,0,1,90,48.34Z"/><path d="M72.63,76.28A20.12,20.12,0,1,1,92.75,56.17,20.13,20.13,0,0,1,72.63,76.28Zm0-38.73A18.62,18.62,0,1,0,91.25,56.17,18.64,18.64,0,0,0,72.63,37.55Z"/><path d="M72.66,71.1A14.94,14.94,0,1,1,87.6,56.17,15,15,0,0,1,72.66,71.1Zm0-28.37A13.44,13.44,0,1,0,86.1,56.17,13.46,13.46,0,0,0,72.66,42.73Z"/><path d="M77.92,26.69a.75.75,0,0,1-.72-.57,9.13,9.13,0,0,0-17.33-1.18.75.75,0,0,1-1,.42.76.76,0,0,1-.42-1,10.63,10.63,0,0,1,20.17,1.37.76.76,0,0,1-.54.92Z"/><path d="M57.82,37.67H36.18a.75.75,0,0,1-.75-.75V24.85a.75.75,0,0,1,1.5,0V36.17H57.07V24.85a.75.75,0,0,1,1.5,0V36.92A.75.75,0,0,1,57.82,37.67Z"/><path d="M59.46,42.73l-.13,0A89.73,89.73,0,0,0,47,41.44a89.73,89.73,0,0,0-12.33,1.27.74.74,0,0,1-.87-.6.75.75,0,0,1,.61-.87A87.47,87.47,0,0,1,47,39.94a87.47,87.47,0,0,1,12.59,1.3.75.75,0,0,1,.61.87A.76.76,0,0,1,59.46,42.73Z"/><path d="M53.34,58.52H40.66a.75.75,0,0,1,0-1.5H53.34a.75.75,0,0,1,0,1.5Z"/></svg>